<svg xmlns="http://www.w3.org/2000/svg" width="67.813" height="71.657" viewBox="0 0 67.813 71.657">
  <path id="box_1_" data-name="box (1)" d="M81.532,15.25a2.242,2.242,0,0,0-1.39-2.074L48.477.168a2.242,2.242,0,0,0-1.7,0L15.109,13.176a2.242,2.242,0,0,0-1.39,2.074V56.407a2.242,2.242,0,0,0,1.39,2.074L46.773,71.489a2.234,2.234,0,0,0,1.7,0c.027-.009-1.172.483,31.667-13.008a2.242,2.242,0,0,0,1.39-2.074ZM47.625,26.023,35.958,21.23l25.214-11L73.62,15.344ZM18.2,18.783l10.066,4.135V34.585a2.242,2.242,0,0,0,4.484,0V24.76l12.631,5.189V66.071L18.2,54.9ZM47.625,4.665,55.4,7.858l-25.214,11-8.552-3.513Zm2.242,25.284L77.048,18.783V54.9L49.867,66.071Z" transform="translate(-13.719)" fill="#42c8af"/>
</svg>
