<svg xmlns="http://www.w3.org/2000/svg" width="67.919" height="67.919" viewBox="0 0 67.919 67.919">
  <g id="clean" transform="translate(0 0)">
    <path id="Trazado_8172" data-name="Trazado 8172" d="M260.577,242.655a15.054,15.054,0,0,1-10.679-4.386,14.838,14.838,0,0,1-4.416-10.6,1.99,1.99,0,0,0-3.98,0,14.839,14.839,0,0,1-4.416,10.6,15.054,15.054,0,0,1-10.679,4.386,1.99,1.99,0,1,0,0,3.98,15.082,15.082,0,0,1,15.1,15.034,1.99,1.99,0,0,0,3.98,0,15.081,15.081,0,0,1,15.095-15.034,1.99,1.99,0,0,0,0-3.98Zm-17.085,10.562a19.174,19.174,0,0,0-8.572-8.561,19.172,19.172,0,0,0,8.572-8.523,19.172,19.172,0,0,0,8.572,8.523A19.172,19.172,0,0,0,243.493,253.217Zm0,0" transform="translate(-194.648 -195.739)" fill="#aa62e3"/>
    <path id="Trazado_8173" data-name="Trazado 8173" d="M27.225,154.4A10.6,10.6,0,0,1,16.6,143.846a1.99,1.99,0,0,0-3.98,0A10.6,10.6,0,0,1,1.989,154.4a1.99,1.99,0,1,0,0,3.98,10.618,10.618,0,0,1,10.628,10.583,1.99,1.99,0,1,0,3.98,0,10.618,10.618,0,0,1,10.628-10.583,1.99,1.99,0,0,0,0-3.98Zm-12.618,7.231a14.694,14.694,0,0,0-5.249-5.239,14.679,14.679,0,0,0,5.249-5.227,14.68,14.68,0,0,0,5.249,5.227A14.69,14.69,0,0,0,14.607,161.627Zm0,0" transform="translate(0 -123.038)" fill="#aa62e3"/>
    <path id="Trazado_8174" data-name="Trazado 8174" d="M216.627,13.75a7.8,7.8,0,0,1,7.816,7.756,1.99,1.99,0,0,0,3.98,0,7.808,7.808,0,0,1,7.816-7.781,1.99,1.99,0,0,0,0-3.98,7.8,7.8,0,0,1-7.816-7.756,1.99,1.99,0,0,0-3.98,0,7.808,7.808,0,0,1-7.816,7.781,1.99,1.99,0,0,0,0,3.98Zm9.811-5.237a11.866,11.866,0,0,0,3.24,3.225,11.875,11.875,0,0,0-3.249,3.245,11.866,11.866,0,0,0-3.24-3.225A11.867,11.867,0,0,0,226.438,8.513Zm0,0" transform="translate(-186.165)" fill="#aa62e3"/>
  </g>
</svg>
