<svg xmlns="http://www.w3.org/2000/svg" width="31.456" height="41.296" viewBox="0 0 31.456 41.296">
  <g id="document" transform="translate(-61)">
    <path id="Trazado_8208" data-name="Trazado 8208" d="M91.068,8.571,83.291,1.214A4.419,4.419,0,0,0,80.243,0H65.436A4.441,4.441,0,0,0,61,4.436V36.86A4.441,4.441,0,0,0,65.436,41.3H88.02a4.441,4.441,0,0,0,4.436-4.436V11.794a4.454,4.454,0,0,0-1.387-3.223Zm-2.35,1.108H82.7a.4.4,0,0,1-.4-.4V3.6Zm-.7,29.2H65.436A2.019,2.019,0,0,1,63.42,36.86V4.436A2.019,2.019,0,0,1,65.436,2.42H79.874V9.275A2.826,2.826,0,0,0,82.7,12.1h7.34V36.86A2.019,2.019,0,0,1,88.02,38.876Z" transform="translate(0 0)" fill="#7c4fce"/>
    <path id="Trazado_8209" data-name="Trazado 8209" d="M146.954,200H129.21a1.21,1.21,0,0,0,0,2.42h17.744a1.21,1.21,0,1,0,0-2.42Z" transform="translate(-61.596 -183.869)" fill="#7c4fce"/>
    <path id="Trazado_8210" data-name="Trazado 8210" d="M146.954,280H129.21a1.21,1.21,0,0,0,0,2.42h17.744a1.21,1.21,0,1,0,0-2.42Z" transform="translate(-61.596 -257.416)" fill="#7c4fce"/>
    <path id="Trazado_8211" data-name="Trazado 8211" d="M135.075,360H129.21a1.21,1.21,0,1,0,0,2.42h5.865a1.21,1.21,0,1,0,0-2.42Z" transform="translate(-61.596 -330.964)" fill="#7c4fce"/>
  </g>
</svg>
