<svg id="file_3_" data-name="file (3)" xmlns="http://www.w3.org/2000/svg" width="71.635" height="71.635" viewBox="0 0 71.635 71.635">
  <g id="Grupo_2541" data-name="Grupo 2541" transform="translate(25.184 12.732)">
    <g id="Grupo_2540" data-name="Grupo 2540">
      <path id="Trazado_8185" data-name="Trazado 8185" d="M198.888,91H182.1a2.1,2.1,0,0,0,0,4.2h16.789a2.1,2.1,0,0,0,0-4.2Z" transform="translate(-180 -91)" fill="#fa92ae"/>
    </g>
  </g>
  <g id="Grupo_2543" data-name="Grupo 2543" transform="translate(25.184 21.127)">
    <g id="Grupo_2542" data-name="Grupo 2542">
      <path id="Trazado_8186" data-name="Trazado 8186" d="M198.888,151H182.1a2.1,2.1,0,1,0,0,4.2h16.789a2.1,2.1,0,0,0,0-4.2Z" transform="translate(-180 -151)" fill="#fa92ae"/>
    </g>
  </g>
  <g id="Grupo_2545" data-name="Grupo 2545" transform="translate(8.395 29.521)">
    <g id="Grupo_2544" data-name="Grupo 2544">
      <path id="Trazado_8187" data-name="Trazado 8187" d="M95.678,211H62.1a2.1,2.1,0,0,0,0,4.2H95.678a2.1,2.1,0,0,0,0-4.2Z" transform="translate(-60 -211)" fill="#fa92ae"/>
    </g>
  </g>
  <g id="Grupo_2547" data-name="Grupo 2547" transform="translate(8.395 37.916)">
    <g id="Grupo_2546" data-name="Grupo 2546">
      <path id="Trazado_8188" data-name="Trazado 8188" d="M88.069,271H62.1a2.1,2.1,0,0,0,0,4.2H88.069a2.1,2.1,0,0,0,0-4.2Z" transform="translate(-60 -271)" fill="#fa92ae"/>
    </g>
  </g>
  <g id="Grupo_2549" data-name="Grupo 2549" transform="translate(0)">
    <g id="Grupo_2548" data-name="Grupo 2548">
      <path id="Trazado_8189" data-name="Trazado 8189" d="M54.706,37.916V6.3A6.411,6.411,0,0,0,48.27,0H18.888A2.119,2.119,0,0,0,17.4.621L.609,17.55A2.118,2.118,0,0,0,0,19.028V65.339a6.3,6.3,0,0,0,6.3,6.3h48.41a16.86,16.86,0,1,0,0-33.719ZM16.789,7.2v9.734H7.136ZM6.3,67.438a2.1,2.1,0,0,1-2.1-2.1V21.127H18.888a2.1,2.1,0,0,0,2.1-2.1V4.2H48.27a2.229,2.229,0,0,1,2.239,2.1V38.439a16.981,16.981,0,0,0-10.459,7.872H10.493a2.1,2.1,0,0,0,0,4.2H38.312a16.635,16.635,0,0,0-.536,4.2H10.493a2.1,2.1,0,0,0,0,4.2H38.309a17,17,0,0,0,5.3,8.535Zm48.41,0A12.9,12.9,0,0,1,41.974,54.706a12.733,12.733,0,0,1,25.464,0A12.9,12.9,0,0,1,54.706,67.438Z" transform="translate(0)" fill="#fa92ae"/>
    </g>
  </g>
  <g id="Grupo_2551" data-name="Grupo 2551" transform="translate(46.171 50.508)">
    <g id="Grupo_2550" data-name="Grupo 2550">
      <path id="Trazado_8190" data-name="Trazado 8190" d="M346.467,361.627a2.1,2.1,0,0,0-2.968-.025l-7.075,6.959-2.866-2.773a2.1,2.1,0,0,0-2.919,3.016l4.337,4.2a2.1,2.1,0,0,0,2.931-.012l8.535-8.395A2.1,2.1,0,0,0,346.467,361.627Z" transform="translate(-330 -361)" fill="#fa92ae"/>
    </g>
  </g>
</svg>
