<svg xmlns="http://www.w3.org/2000/svg" width="58.859" height="58.859" viewBox="0 0 58.859 58.859">
  <g id="list" transform="translate(0 -0.001)">
    <path id="Trazado_8158" data-name="Trazado 8158" d="M141.727,63.45h39.316a1.724,1.724,0,0,0,0-3.449H141.727a1.724,1.724,0,1,0,0,3.449Z" transform="translate(-123.909 -53.102)" fill="#f1ab48"/>
    <path id="Trazado_8159" data-name="Trazado 8159" d="M181.043,241H141.727a1.724,1.724,0,1,0,0,3.449h39.316a1.724,1.724,0,1,0,0-3.449Z" transform="translate(-123.909 -213.295)" fill="#f1ab48"/>
    <path id="Trazado_8160" data-name="Trazado 8160" d="M181.043,422H141.727a1.724,1.724,0,1,0,0,3.449h39.316a1.724,1.724,0,0,0,0-3.449Z" transform="translate(-123.909 -373.487)" fill="#f1ab48"/>
    <path id="Trazado_8161" data-name="Trazado 8161" d="M12.727,3.45h.979V14.371a1.724,1.724,0,0,0,3.449,0V1.725A1.724,1.724,0,0,0,15.43,0h-2.7a1.724,1.724,0,0,0,0,3.449Z" transform="translate(-9.738 0)" fill="#f1ab48"/>
    <path id="Trazado_8162" data-name="Trazado 8162" d="M8.516,198.619c-1.017.013-2.088.022-3.044.026.651-.879,1.5-2.045,2.573-3.584a9.733,9.733,0,0,0,1.586-3.292,1.723,1.723,0,0,0,.031-.171l.061-.48a1.713,1.713,0,0,0,.014-.219,4.9,4.9,0,0,0-9.7-.947,1.724,1.724,0,1,0,3.384.665,1.45,1.45,0,0,1,2.869.194l-.032.253a6.534,6.534,0,0,1-1.033,2.019c-1.961,2.8-3.13,4.333-3.759,5.156-.794,1.039-1.231,1.612-.943,2.548a1.778,1.778,0,0,0,1.155,1.172,9.734,9.734,0,0,0,2.828.14c.956,0,2.262-.01,4.059-.032a1.724,1.724,0,1,0-.043-3.449Z" transform="translate(0 -164.618)" fill="#f1ab48"/>
    <path id="Trazado_8163" data-name="Trazado 8163" d="M7.023,372a4.894,4.894,0,0,0-4.794,3.941,1.724,1.724,0,1,0,3.384.664,1.437,1.437,0,1,1,1.41,1.717,1.724,1.724,0,0,0,0,3.449,1.437,1.437,0,1,1-1.423,1.64,1.471,1.471,0,0,1-.014-.2,1.724,1.724,0,1,0-3.449,0A4.882,4.882,0,0,0,7.023,388.1a4.882,4.882,0,0,0,3.721-8.047A4.882,4.882,0,0,0,7.023,372Z" transform="translate(-1.891 -329.235)" fill="#f1ab48"/>
  </g>
</svg>
