<svg id="online-resume" xmlns="http://www.w3.org/2000/svg" width="71.019" height="71.019" viewBox="0 0 71.019 71.019">
  <path id="Trazado_8191" data-name="Trazado 8191" d="M68.938,11.1H62.557V10.4A10.415,10.415,0,0,0,52.154,0H10.542A2.081,2.081,0,0,0,8.461,2.081V11.1H2.081A2.081,2.081,0,0,0,0,13.177V57.564a2.081,2.081,0,0,0,2.081,2.081H24.538l-1.759,7.213H20.251a2.081,2.081,0,1,0,0,4.161H50.767a2.081,2.081,0,1,0,0-4.161H48.24l-1.759-7.213H68.938a2.081,2.081,0,0,0,2.081-2.081V13.177A2.081,2.081,0,0,0,68.938,11.1Zm-14.7-6.578a6.271,6.271,0,0,1,3.8,3.8h-3.8ZM12.622,4.161H50.074V10.4a2.081,2.081,0,0,0,2.081,2.081H58.4V47.161H12.622Zm-8.461,11.1h4.3v31.9h-4.3Zm22.9,51.6,1.759-7.213H42.2l1.759,7.213Zm39.8-11.374H4.161V51.322h62.7Zm0-8.322h-4.3v-31.9h4.3Z" fill="#fd612c"/>
  <path id="Trazado_8192" data-name="Trazado 8192" d="M123.081,82.742h22.193a2.081,2.081,0,0,0,2.081-2.081,13.19,13.19,0,0,0-7.082-11.68,8.322,8.322,0,1,0-12.19,0A13.19,13.19,0,0,0,121,80.661,2.081,2.081,0,0,0,123.081,82.742Zm11.1-23.58a4.161,4.161,0,1,1-4.161,4.161A4.166,4.166,0,0,1,134.177,59.161Zm0,12.484a9.032,9.032,0,0,1,8.774,6.935H125.4A9.032,9.032,0,0,1,134.177,71.645Z" transform="translate(-104.216 -47.371)" fill="#fd612c"/>
  <path id="Trazado_8193" data-name="Trazado 8193" d="M338.629,115h-5.548a2.081,2.081,0,1,0,0,4.161h5.548a2.081,2.081,0,1,0,0-4.161Z" transform="translate(-285.088 -99.049)" fill="#fd612c"/>
  <path id="Trazado_8194" data-name="Trazado 8194" d="M338.629,170h-5.548a2.081,2.081,0,1,0,0,4.161h5.548a2.081,2.081,0,1,0,0-4.161Z" transform="translate(-285.088 -146.42)" fill="#fd612c"/>
  <path id="Trazado_8195" data-name="Trazado 8195" d="M338.629,225h-5.548a2.081,2.081,0,1,0,0,4.161h5.548a2.081,2.081,0,1,0,0-4.161Z" transform="translate(-285.088 -193.791)" fill="#fd612c"/>
  <path id="Trazado_8196" data-name="Trazado 8196" d="M149.145,280H113.081a2.081,2.081,0,0,0,0,4.161h36.064a2.081,2.081,0,0,0,0-4.161Z" transform="translate(-95.603 -241.162)" fill="#fd612c"/>
</svg>
