<svg xmlns="http://www.w3.org/2000/svg" width="31.734" height="42.312" viewBox="0 0 31.734 42.312">
  <g id="shopping-list" transform="translate(-64)">
    <g id="Grupo_2507" data-name="Grupo 2507" transform="translate(69.291 15.867)">
      <g id="Grupo_2506" data-name="Grupo 2506">
        <path id="Trazado_8142" data-name="Trazado 8142" d="M138.214,192.4a1.326,1.326,0,0,0-1.872,0l-4.353,4.355-1.708-1.711a1.322,1.322,0,1,0-1.87,1.87l2.644,2.644a1.309,1.309,0,0,0,.933.389,1.328,1.328,0,0,0,.936-.386l5.289-5.289A1.323,1.323,0,0,0,138.214,192.4Z" transform="translate(-128.024 -192.008)" fill="#936cda"/>
      </g>
    </g>
    <g id="Grupo_2509" data-name="Grupo 2509" transform="translate(69.291 26.445)">
      <g id="Grupo_2508" data-name="Grupo 2508">
        <path id="Trazado_8143" data-name="Trazado 8143" d="M138.214,320.4a1.326,1.326,0,0,0-1.872,0l-4.353,4.355-1.708-1.708a1.322,1.322,0,0,0-1.87,1.87l2.644,2.644a1.325,1.325,0,0,0,1.87,0l5.289-5.289A1.323,1.323,0,0,0,138.214,320.4Z" transform="translate(-128.024 -320.008)" fill="#936cda"/>
      </g>
    </g>
    <g id="Grupo_2511" data-name="Grupo 2511" transform="translate(82.511 18.511)">
      <g id="Grupo_2510" data-name="Grupo 2510">
        <path id="Trazado_8144" data-name="Trazado 8144" d="M294.611,224h-5.289a1.322,1.322,0,1,0,0,2.644h5.289a1.322,1.322,0,1,0,0-2.644Z" transform="translate(-288 -224)" fill="#936cda"/>
      </g>
    </g>
    <g id="Grupo_2513" data-name="Grupo 2513" transform="translate(82.511 29.089)">
      <g id="Grupo_2512" data-name="Grupo 2512">
        <path id="Trazado_8145" data-name="Trazado 8145" d="M294.611,352h-5.289a1.322,1.322,0,0,0,0,2.644h5.289a1.322,1.322,0,1,0,0-2.644Z" transform="translate(-288 -352)" fill="#936cda"/>
      </g>
    </g>
    <g id="Grupo_2515" data-name="Grupo 2515" transform="translate(64)">
      <g id="Grupo_2514" data-name="Grupo 2514">
        <path id="Trazado_8146" data-name="Trazado 8146" d="M93.089,5.289H87.8V3.967a1.323,1.323,0,0,0-1.322-1.322H83.609a3.97,3.97,0,0,0-7.484,0H73.256a1.323,1.323,0,0,0-1.322,1.322V5.289H66.644A2.649,2.649,0,0,0,64,7.933V39.667a2.649,2.649,0,0,0,2.644,2.644H93.089a2.649,2.649,0,0,0,2.644-2.644V7.933A2.649,2.649,0,0,0,93.089,5.289Zm-18.511,0h2.644a1.323,1.323,0,0,0,1.322-1.322,1.322,1.322,0,1,1,2.644,0,1.323,1.323,0,0,0,1.322,1.322h2.644V7.933H74.578ZM93.089,39.667H66.644V7.933h5.289V9.256a1.323,1.323,0,0,0,1.322,1.322H86.478A1.323,1.323,0,0,0,87.8,9.256V7.933h5.289Z" transform="translate(-64)" fill="#936cda"/>
      </g>
    </g>
  </g>
</svg>
