<svg id="stamp_1_" data-name="stamp (1)" xmlns="http://www.w3.org/2000/svg" width="72.037" height="72.037" viewBox="0 0 72.037 72.037">
  <path id="Trazado_8175" data-name="Trazado 8175" d="M61.485,59.374h-2.11V52.3a19.864,19.864,0,0,1,2.012-8.194,8.973,8.973,0,0,0,.8-3.725,9.16,9.16,0,0,0-7.035-8.9V10.552A10.564,10.564,0,0,0,44.6,0H2.11A2.111,2.111,0,0,0,0,2.11V69.927a2.111,2.111,0,0,0,2.11,2.11H69.927a2.111,2.111,0,0,0,2.11-2.11A10.564,10.564,0,0,0,61.485,59.374ZM53.043,35.456a4.93,4.93,0,0,1,4.924,4.924,4.783,4.783,0,0,1-.426,1.985A25.071,25.071,0,0,0,55.2,50.932H50.882a25.074,25.074,0,0,0-2.337-8.567,4.783,4.783,0,0,1-.426-1.985A4.93,4.93,0,0,1,53.043,35.456Zm2.11,19.7v4.221H50.932V55.153ZM46.712,4.584a6.361,6.361,0,0,1,3.858,3.858H46.712ZM34.261,67.816H4.221V4.221h38.27v6.331a2.111,2.111,0,0,0,2.11,2.11h6.331V31.483a9.16,9.16,0,0,0-7.035,8.9,8.976,8.976,0,0,0,.8,3.725A19.861,19.861,0,0,1,46.712,52.3v7.076H44.6A10.57,10.57,0,0,0,34.261,67.816Zm4.37,0A6.342,6.342,0,0,1,44.6,63.6H61.485a6.342,6.342,0,0,1,5.97,4.221Z" fill="#20aae8"/>
  <path id="Trazado_8176" data-name="Trazado 8176" d="M62.11,125.221H96.159a2.11,2.11,0,0,0,0-4.221H62.11a2.11,2.11,0,1,0,0,4.221Z" transform="translate(-51.558 -103.976)" fill="#20aae8"/>
  <path id="Trazado_8177" data-name="Trazado 8177" d="M62.11,185.221H96.159a2.11,2.11,0,0,0,0-4.221H62.11a2.11,2.11,0,0,0,0,4.221Z" transform="translate(-51.558 -155.534)" fill="#20aae8"/>
  <path id="Trazado_8178" data-name="Trazado 8178" d="M90.531,241H62.11a2.11,2.11,0,0,0,0,4.221H90.531a2.11,2.11,0,0,0,0-4.221Z" transform="translate(-51.558 -207.092)" fill="#20aae8"/>
  <path id="Trazado_8179" data-name="Trazado 8179" d="M70.552,301A10.552,10.552,0,1,0,81.1,311.552,10.564,10.564,0,0,0,70.552,301Zm0,16.884a6.331,6.331,0,1,1,6.331-6.331A6.339,6.339,0,0,1,70.552,317.884Z" transform="translate(-51.558 -258.65)" fill="#20aae8"/>
  <circle id="Elipse_129" data-name="Elipse 129" cx="2" cy="2" r="2" transform="translate(17 51.037)" fill="#20aae8"/>
</svg>
