<svg xmlns="http://www.w3.org/2000/svg" width="58.967" height="71.657" viewBox="0 0 58.967 71.657">
  <path id="Trazado_8180" data-name="Trazado 8180" d="M103.84,58.781a2.111,2.111,0,0,0,.463-1.328V10.763a2.1,2.1,0,0,0-2.1-2.1H95.458V2.1a2.1,2.1,0,0,0-2.1-2.1H47.436a2.1,2.1,0,0,0-2.1,2.1V60.893a2.1,2.1,0,0,0,2.1,2.1h6.747v6.565a2.1,2.1,0,0,0,2.1,2.1H89.53a2.153,2.153,0,0,0,1.451-.58l12.673-12.09a2.656,2.656,0,0,0,.187-.205Zm-54.3.013V4.2H91.259V8.664H56.282a2.1,2.1,0,0,0-2.1,2.1V58.794H49.536Zm8.846-45.931H100.1V55.368H89.531a2.1,2.1,0,0,0-2.1,2.1v9.991H58.382Zm33.249,51.79V59.566h5.332Z" transform="translate(-45.337 0)" fill="#e8b416"/>
</svg>
