<svg id="verify" xmlns="http://www.w3.org/2000/svg" width="38.602" height="38.601" viewBox="0 0 38.602 38.601">
  <path id="Trazado_2667" data-name="Trazado 2667" d="M10.593,17.259a1.209,1.209,0,0,1-.857-.357L5.349,12.479a1.207,1.207,0,1,1,1.715-1.7l3.471,3.5,6.824-7.865A1.206,1.206,0,0,1,19.181,8L11.5,16.842a1.21,1.21,0,0,1-.872.417h-.04Z" transform="translate(3.041 3.65)" fill="#7c4fce"/>
  <path id="Trazado_2668" data-name="Trazado 2668" d="M15.279,30.559A15.279,15.279,0,1,1,30.559,15.279,15.3,15.3,0,0,1,15.279,30.559Zm0-28.146A12.867,12.867,0,1,0,28.146,15.279,12.882,12.882,0,0,0,15.279,2.413Z" fill="#7c4fce"/>
  <path id="Trazado_2669" data-name="Trazado 2669" d="M28.153,29.36a1.2,1.2,0,0,1-.852-.354L15.544,17.249a1.207,1.207,0,0,1,1.706-1.706L29.007,27.3a1.207,1.207,0,0,1-.854,2.06Z" transform="translate(9.241 9.241)" fill="#7c4fce"/>
</svg>
